<svg width="4000" height="4000" viewBox="0 0 4000 4000" fill="none" xmlns="http://www.w3.org/2000/svg">
<path fill-rule="evenodd" clip-rule="evenodd" d="M0.0600586 4000H4000V0.0390625H0.0600586V4000Z" fill="#35E1FF"/>
<path fill-rule="evenodd" clip-rule="evenodd" d="M1245.22 3339.29C1170.84 3339.29 1095.44 3324.26 1021.57 3294.31C901.666 3245.68 803.454 3171.11 729.686 3072.71C676.704 3002.03 637.528 2920.18 612.354 2827.87C632.046 2869.2 655.306 2907.76 682.077 2943.48C722.409 2997.29 770.93 3044.65 826.28 3084.22C871.237 3116.36 920.928 3143.56 973.965 3165.08C1047.84 3195.05 1123.21 3210.07 1197.59 3210.07C1258.32 3210.07 1318.39 3200.06 1376.42 3179.98C1484.38 3142.63 1581.74 3073.09 1657.94 2978.85C1694.19 2934.03 1717.76 2893.46 1730.54 2868.91C1777.3 2867.54 1883.23 2864.48 1976.29 2861.8C2069.34 2864.48 2175.27 2867.54 2222.03 2868.91C2234.81 2893.46 2258.38 2934.03 2294.63 2978.85C2370.83 3073.09 2468.19 3142.63 2576.15 3179.98C2634.18 3200.06 2694.24 3210.07 2754.98 3210.07C2829.36 3210.07 2904.74 3195.04 2978.61 3165.08C3031.64 3143.56 3081.33 3116.36 3126.29 3084.22C3181.64 3044.65 3230.16 2997.29 3270.49 2943.48C3370.75 2809.75 3421.57 2636.06 3421.57 2427.2C3421.57 2426.96 3421.57 2426.71 3421.57 2426.47C3421.46 2420.35 3418.52 2289.72 3372.31 2134.09C3382.78 2157.39 3392.52 2181.66 3401.52 2206.88C3465.39 2386.08 3469.05 2548.85 3469.19 2555.69C3469.19 2555.94 3469.19 2556.18 3469.19 2556.43C3469.19 2765.29 3418.36 2938.98 3318.1 3072.71C3244.34 3171.11 3146.12 3245.68 3026.22 3294.31C2952.35 3324.26 2876.95 3339.29 2802.57 3339.29C2741.85 3339.29 2681.79 3329.28 2623.76 3309.21C2409.11 3234.95 2302.75 3062.32 2269.57 2998.14C2238.53 2997.23 2170.41 2995.24 2025.45 2991.06L2023.89 2991.02L2022.34 2991.06C1877.38 2995.24 1809.26 2997.23 1778.22 2998.14C1745.04 3062.32 1638.68 3234.95 1424.03 3309.21C1366 3329.28 1305.95 3339.29 1245.22 3339.29ZM2202.98 1615.81H2109.78C2148.47 1553.2 2165.76 1493.62 2161.3 1437.68C2153.38 1338.53 2077.23 1265.39 2014.74 1221.48C1944.88 1172.4 1900.97 1099.15 1894.29 1020.49C1888.17 948.404 1912.84 879.103 1963.88 823.992C1968.01 823.963 1972.14 823.834 1976.29 823.834C2006.18 823.834 2035.89 824.598 2065.42 826.065C2064.64 837.727 2058.87 848.966 2048.68 856.364C2048.2 856.725 2040.52 862.471 2029.93 872.982C1990.53 912.116 1971.24 962.045 1975.62 1013.58C1980.24 1068.11 2011.61 1119.54 2061.66 1154.7C2138.46 1208.65 2232.22 1300.43 2242.65 1431.18C2247.44 1491.14 2234.14 1552.83 2202.98 1615.81Z" fill="#40C3D9"/>
<path fill-rule="evenodd" clip-rule="evenodd" d="M2893.41 1670.81C2850.29 1660.57 2805.92 1656.62 2761.59 1656.62H1190.98C1146.65 1656.62 1102.28 1660.57 1059.16 1670.81C583.489 1783.74 571.808 2427.2 571.808 2427.2C571.808 2876.46 813.765 3056.07 989.308 3127.27C1110.35 3176.36 1240.44 3183.85 1363.09 3141.42C1609.46 3056.18 1704.56 2828.89 1704.56 2828.89C1701.51 2828.89 1926.5 2822.41 1976.28 2820.98C2026.07 2822.41 2251.06 2828.89 2248.01 2828.89C2248.01 2828.89 2343.11 3056.18 2589.48 3141.42C2712.13 3183.85 2842.22 3176.36 2963.26 3127.27C3138.8 3056.07 3380.76 2876.46 3380.76 2427.2C3380.76 2427.2 3369.09 1783.74 2893.41 1670.81Z" fill="#ACBAC9"/>
<path fill-rule="evenodd" clip-rule="evenodd" d="M2285.67 2813.14C2285.86 2813.59 2308.85 2867.18 2359.8 2929.65C2427.07 3012.05 2508.83 3070.33 2602.83 3102.85C2713.01 3140.97 2832.35 3136.33 2947.93 3089.45C3126.7 3016.94 3339.8 2843.26 3339.95 2427.65C3339.76 2420.01 3334.98 2266.53 3276.32 2103.08C3198.36 1885.89 3066.36 1753.81 2883.98 1710.51C2846.92 1701.71 2806.88 1697.43 2761.59 1697.43H1190.98C1145.69 1697.43 1105.65 1701.71 1068.59 1710.51C885.628 1753.95 753.382 1886.7 675.547 2105.06C617.354 2268.28 612.81 2419.83 612.617 2427.64C612.772 2843.24 825.871 3016.94 1004.64 3089.45C1120.22 3136.33 1239.56 3140.97 1349.74 3102.85C1443.74 3070.33 1525.5 3012.05 1592.77 2929.65C1643.72 2867.18 1666.71 2813.59 1666.94 2813.06L1666.99 2813.07C1672.64 2799.66 1685.48 2788.71 1703.74 2788.07L1712.95 2787.78C1719.12 2787.61 1728.02 2787.34 1738.83 2787.02C1760.45 2786.38 1789.79 2785.54 1820.68 2784.64C1882.44 2782.85 1950.39 2780.89 1975.12 2780.18C1975.89 2780.15 1976.68 2780.15 1977.45 2780.18C2002.18 2780.89 2070.13 2782.85 2131.89 2784.64C2162.78 2785.54 2192.12 2786.38 2213.73 2787.02C2224.55 2787.34 2233.45 2787.61 2239.62 2787.78L2248.83 2788.07C2267.13 2788.71 2279.97 2799.7 2285.63 2813.15L2285.67 2813.14ZM1197.59 3210.07C1123.21 3210.07 1047.84 3195.05 973.965 3165.08C920.928 3143.56 871.236 3116.36 826.279 3084.22C770.93 3044.65 722.409 2997.29 682.076 2943.48C581.828 2809.75 531 2636.06 531 2427.2C531 2426.96 531 2426.71 531 2426.47C531.131 2419.63 534.782 2256.85 598.667 2077.65C636.657 1971.07 688.211 1880.85 751.886 1809.47C832.741 1718.84 932.952 1658.82 1049.73 1631.1C1093.06 1620.82 1139.25 1615.81 1190.98 1615.81H2761.59C2813.32 1615.81 2859.51 1620.82 2902.84 1631.1C3019.62 1658.82 3119.83 1718.84 3200.68 1809.47C3264.36 1880.85 3315.91 1971.07 3353.91 2077.65C3417.78 2256.85 3421.44 2419.63 3421.57 2426.47C3421.57 2426.71 3421.57 2426.96 3421.57 2427.2C3421.57 2636.06 3370.75 2809.75 3270.49 2943.48C3230.16 2997.29 3181.64 3044.65 3126.29 3084.22C3081.33 3116.36 3031.64 3143.56 2978.61 3165.08C2844.44 3219.5 2705.27 3224.65 2576.15 3179.98C2468.19 3142.63 2370.83 3073.09 2294.63 2978.85C2258.38 2934.03 2234.81 2893.46 2222.03 2868.91C2175.27 2867.54 2069.34 2864.48 1976.28 2861.8C1883.23 2864.48 1777.3 2867.54 1730.54 2868.91C1717.76 2893.46 1694.19 2934.03 1657.94 2978.85C1581.74 3073.09 1484.38 3142.63 1376.42 3179.98C1318.39 3200.06 1258.32 3210.07 1197.59 3210.07Z" fill="#6D4C41"/>
<path fill-rule="evenodd" clip-rule="evenodd" d="M1879.91 2442.34H1752.64C1710.19 2442.34 1675.17 2409.85 1671.18 2368.43C1685.74 2381.8 1705.17 2389.96 1726.46 2389.96H1853.73C1898.85 2389.96 1935.57 2353.25 1935.57 2308.11C1935.57 2305.45 1935.44 2302.79 1935.19 2300.2C1951.52 2315.16 1961.76 2336.65 1961.76 2360.5C1961.76 2405.63 1925.04 2442.34 1879.91 2442.34Z" fill="#9FA4AE"/>
<path fill-rule="evenodd" clip-rule="evenodd" d="M2252.31 2442.34H2125.05C2082.59 2442.34 2047.58 2409.85 2043.58 2368.43C2058.15 2381.8 2077.56 2389.96 2098.85 2389.96H2226.11C2271.25 2389.96 2307.96 2353.25 2307.96 2308.11C2307.96 2305.45 2307.84 2302.79 2307.58 2300.2C2323.9 2315.16 2334.16 2336.65 2334.16 2360.5C2334.16 2405.63 2297.45 2442.34 2252.31 2442.34Z" fill="#9FA4AE"/>
<path fill-rule="evenodd" clip-rule="evenodd" d="M3047.72 2511.88C2985.16 2511.88 2932.52 2468.57 2918.21 2410.36C2942.68 2440.33 2979.91 2459.5 3021.54 2459.5C3049.33 2459.5 3075.16 2450.94 3096.56 2436.34C3095.03 2459.24 3092.98 2482.13 3090.31 2504.9C3076.93 2509.42 3062.62 2511.88 3047.72 2511.88Z" fill="#9FA4AE"/>
<path fill-rule="evenodd" clip-rule="evenodd" d="M2605.88 2511.88C2543.32 2511.88 2490.67 2468.57 2476.36 2410.36C2500.83 2440.33 2538.07 2459.5 2579.69 2459.5C2653.21 2459.5 2713.04 2399.67 2713.04 2326.15C2713.04 2315.17 2711.71 2304.52 2709.2 2294.3C2727.96 2317.28 2739.24 2346.62 2739.24 2378.52C2739.24 2399.36 2734.42 2419.1 2725.87 2436.67C2706.58 2449.78 2690.89 2467.79 2680.62 2488.91C2659.28 2503.41 2633.56 2511.88 2605.88 2511.88Z" fill="#9FA4AE"/>
<path fill-rule="evenodd" clip-rule="evenodd" d="M2826.8 2732.8C2764.24 2732.8 2711.6 2689.49 2697.29 2631.29C2721.76 2661.25 2758.99 2680.42 2800.61 2680.42C2874.14 2680.42 2933.96 2620.59 2933.96 2547.07C2933.96 2536.09 2932.63 2525.43 2930.12 2515.23C2948.88 2538.2 2960.16 2567.54 2960.16 2599.44C2960.16 2672.98 2900.33 2732.8 2826.8 2732.8Z" fill="#9FA4AE"/>
<path fill-rule="evenodd" clip-rule="evenodd" d="M2826.8 2290.96C2764.24 2290.96 2711.6 2247.65 2697.29 2189.44C2721.76 2219.41 2758.99 2238.57 2800.61 2238.57C2874.14 2238.57 2933.96 2178.75 2933.96 2105.23C2933.96 2094.25 2932.63 2083.58 2930.12 2073.38C2948.88 2096.36 2960.16 2125.7 2960.16 2157.6C2960.16 2178.44 2955.36 2198.17 2946.79 2215.76C2927.51 2228.86 2911.82 2246.87 2901.55 2268C2880.2 2282.48 2854.48 2290.96 2826.8 2290.96Z" fill="#9FA4AE"/>
<path fill-rule="evenodd" clip-rule="evenodd" d="M1170.44 2725.09C1111.16 2725.09 1061.4 2683.6 1048.67 2628.14C1071.61 2655.38 1105.94 2672.71 1144.24 2672.71C1213.14 2672.71 1269.19 2616.66 1269.19 2547.78V2451.08H1365.89C1434.77 2451.08 1490.82 2395.03 1490.82 2326.15C1490.82 2316.52 1489.73 2307.16 1487.66 2298.15C1505.97 2319.89 1517 2347.94 1517 2378.52C1517 2447.42 1460.96 2503.46 1392.07 2503.46H1295.37V2600.16C1295.37 2669.05 1239.33 2725.09 1170.44 2725.09ZM1019.32 2503.46H948.814C889.533 2503.46 839.774 2461.97 827.042 2406.5C849.976 2433.75 884.309 2451.08 922.615 2451.08H1019.32V2503.46ZM1295.37 2201.21H1269.19V2104.5C1269.19 2094.89 1268.1 2085.53 1266.03 2076.52C1284.34 2098.26 1295.37 2126.31 1295.37 2156.89V2201.21Z" fill="#9FA4AE"/>
<path fill-rule="evenodd" clip-rule="evenodd" d="M803.903 2959.53C761.693 2918.1 723.034 2867.24 691.694 2804.79C691.666 2804.75 691.639 2804.69 691.612 2804.64C691.544 2804.49 691.462 2804.35 691.394 2804.2C643.962 2709.43 613.32 2588 612.617 2432.55C612.617 2432.52 612.617 2432.49 612.617 2432.47C612.617 2432.11 612.617 2431.81 612.617 2431.46C612.617 2431.39 612.617 2431.32 612.617 2431.26C612.617 2431.05 612.617 2430.92 612.617 2430.71C612.617 2430.48 612.617 2430.28 612.617 2430.05C612.617 2429.9 612.617 2429.79 612.617 2429.64C612.617 2429.38 612.617 2429.12 612.617 2428.86C612.617 2428.77 612.617 2428.67 612.617 2428.58C612.617 2428.3 612.617 2428.02 612.617 2427.75C612.617 2427.72 612.617 2427.67 612.617 2427.64C612.823 2419.8 617.627 2266.4 676.255 2103.08C754.212 1885.89 886.213 1753.81 1068.59 1710.51C1105.65 1701.71 1145.69 1697.43 1190.98 1697.43H2761.59C2806.88 1697.43 2846.92 1701.71 2883.98 1710.51C2927.06 1720.74 2967.3 1735.99 3004.71 1756.07C2996.78 1753.76 2988.75 1751.55 2980.51 1749.59C2943.67 1740.85 2903.79 1736.59 2858.61 1736.59H1259.49C1253.62 1736.59 1248.09 1736.88 1242.39 1737.01C1206.95 1766.15 1148.26 1796.67 1078.67 1819.58C1027.44 1836.45 978.59 1846.42 938.04 1849.62C693.367 2054.98 682.498 2463.78 682.403 2468.8C682.403 2689.19 742.228 2841.6 825.055 2946.98C815.03 2941.44 805.372 2935.33 796.068 2928.61L803.903 2959.53Z" fill="#D6DDE4"/>
<path fill-rule="evenodd" clip-rule="evenodd" d="M691.694 2804.79C691.666 2804.75 691.639 2804.68 691.612 2804.64C691.639 2804.69 691.666 2804.75 691.694 2804.79ZM691.394 2804.21C643.948 2709.43 613.309 2588.06 612.629 2432.55C613.32 2588 643.962 2709.43 691.394 2804.21ZM612.628 2432.47C612.626 2432.13 612.625 2431.8 612.624 2431.46C612.625 2431.82 612.626 2432.11 612.628 2432.47ZM612.624 2431.26C612.622 2431.09 612.622 2430.88 612.622 2430.71C612.622 2430.92 612.622 2431.05 612.624 2431.26ZM612.619 2430.05C612.619 2429.91 612.619 2429.78 612.619 2429.64C612.619 2429.79 612.619 2429.9 612.619 2430.05ZM612.618 2428.86C612.618 2428.76 612.618 2428.69 612.617 2428.58C612.618 2428.67 612.618 2428.77 612.618 2428.86Z" fill="#B6A6A0"/>
<path fill-rule="evenodd" clip-rule="evenodd" d="M2566.47 3088.58C2367.79 3002.13 2286.47 2815.05 2285.67 2813.14L2285.63 2813.16C2285.29 2812.35 2284.92 2811.55 2284.52 2810.76C2282.81 2807.27 2280.54 2803.88 2277.65 2800.83C2273.86 2796.79 2269.17 2793.45 2263.66 2791.19C2271.74 2791.46 2279.84 2791.81 2287.77 2792.56C2290.22 2792.28 2292.71 2792.13 2295.22 2792.13V2793.38C2325.1 2797.21 2350.81 2807.5 2357.42 2838.51C2372.23 2869.31 2437.04 2992.33 2566.78 3088.56C2566.67 3088.57 2566.58 3088.57 2566.47 3088.58Z" fill="#D6DDE4"/>
<path fill-rule="evenodd" clip-rule="evenodd" d="M2285.61 2813.15C2285.27 2812.35 2284.92 2811.56 2284.52 2810.76C2284.92 2811.55 2285.29 2812.35 2285.63 2813.15L2285.67 2813.14L2285.61 2813.15ZM2277.65 2800.83C2273.87 2796.84 2269.03 2793.46 2263.02 2791.16C2263.24 2791.17 2263.45 2791.17 2263.66 2791.19C2269.17 2793.44 2273.86 2796.79 2277.65 2800.83Z" fill="#B6A6A0"/>
<path fill-rule="evenodd" clip-rule="evenodd" d="M1726.46 2363.77C1695.75 2363.77 1670.79 2338.8 1670.79 2308.11C1670.79 2277.42 1695.75 2252.46 1726.46 2252.46H1853.72C1884.41 2252.46 1909.37 2277.42 1909.37 2308.11C1909.37 2338.8 1884.41 2363.77 1853.72 2363.77H1726.46Z" fill="#7C8A99"/>
<path fill-rule="evenodd" clip-rule="evenodd" d="M1853.72 2226.28H1726.46C1681.32 2226.28 1644.61 2262.99 1644.61 2308.11C1644.61 2353.25 1681.32 2389.96 1726.46 2389.96H1853.72C1898.84 2389.96 1935.57 2353.25 1935.57 2308.11C1935.57 2262.99 1898.84 2226.28 1853.72 2226.28ZM1853.72 2278.65C1869.99 2278.65 1883.19 2291.84 1883.19 2308.11C1883.19 2324.39 1869.99 2337.59 1853.72 2337.59H1726.46C1710.17 2337.59 1696.99 2324.39 1696.99 2308.11C1696.99 2291.84 1710.17 2278.65 1726.46 2278.65H1853.72Z" fill="#6D4C41"/>
<path fill-rule="evenodd" clip-rule="evenodd" d="M1713.3 2334.35C1703.89 2329.63 1697.31 2320.09 1696.99 2308.93C1696.99 2308.89 1696.99 2308.86 1696.99 2308.82C1696.99 2308.79 1696.99 2308.76 1696.99 2308.75C1696.99 2308.72 1696.99 2308.7 1696.99 2308.67C1696.99 2308.61 1696.99 2308.56 1696.99 2308.5C1696.99 2308.49 1696.99 2308.48 1696.99 2308.46C1696.99 2308.42 1696.99 2308.38 1696.99 2308.34C1696.99 2308.31 1696.99 2308.3 1696.99 2308.29C1696.99 2308.23 1696.99 2308.18 1696.99 2308.11C1696.99 2292.48 1709.17 2279.69 1724.55 2278.71C1725.18 2278.67 1725.82 2278.65 1726.46 2278.65H1853.72C1853.78 2278.65 1853.83 2278.65 1853.89 2278.65C1853.9 2278.65 1853.93 2278.65 1853.94 2278.65C1853.98 2278.65 1854.02 2278.66 1854.06 2278.66C1854.08 2278.66 1854.1 2278.66 1854.12 2278.66C1854.16 2278.66 1854.21 2278.66 1854.27 2278.66C1854.3 2278.66 1854.32 2278.66 1854.35 2278.66C1854.38 2278.66 1854.4 2278.66 1854.42 2278.66C1854.46 2278.66 1854.5 2278.66 1854.53 2278.66C1865.71 2278.97 1875.23 2285.56 1879.96 2294.97C1875.99 2292.97 1871.57 2291.75 1866.81 2291.75H1739.54C1723.27 2291.75 1710.08 2304.94 1710.08 2321.21C1710.08 2325.96 1711.32 2330.38 1713.3 2334.35Z" fill="#BEC5CC"/>
<path fill-rule="evenodd" clip-rule="evenodd" d="M1696.99 2308.67C1696.99 2308.61 1696.99 2308.56 1696.99 2308.5C1696.99 2308.56 1696.99 2308.61 1696.99 2308.67ZM1696.99 2308.29C1696.99 2308.23 1696.99 2308.18 1696.99 2308.11C1696.99 2308.18 1696.99 2308.23 1696.99 2308.29ZM1696.99 2308.11C1696.99 2292.48 1709.17 2279.69 1724.55 2278.71C1709.17 2279.69 1696.99 2292.48 1696.99 2308.11ZM1854.27 2278.66C1854.21 2278.66 1854.16 2278.66 1854.12 2278.66C1854.17 2278.66 1854.21 2278.66 1854.27 2278.66ZM1853.89 2278.65C1853.83 2278.65 1853.78 2278.65 1853.72 2278.65C1853.78 2278.65 1853.83 2278.65 1853.89 2278.65Z" fill="#B6A6A0"/>
<path fill-rule="evenodd" clip-rule="evenodd" d="M2098.85 2363.77C2068.16 2363.77 2043.2 2338.8 2043.2 2308.11C2043.2 2277.42 2068.16 2252.46 2098.85 2252.46H2226.11C2256.82 2252.46 2281.78 2277.42 2281.78 2308.11C2281.78 2338.8 2256.82 2363.77 2226.11 2363.77H2098.85Z" fill="#7C8A99"/>
<path fill-rule="evenodd" clip-rule="evenodd" d="M2226.11 2226.28H2098.85C2053.73 2226.28 2017 2262.99 2017 2308.11C2017 2353.25 2053.73 2389.96 2098.85 2389.96H2226.11C2271.25 2389.96 2307.96 2353.25 2307.96 2308.11C2307.96 2262.99 2271.25 2226.28 2226.11 2226.28ZM2226.11 2278.65C2242.4 2278.65 2255.58 2291.84 2255.58 2308.11C2255.58 2324.39 2242.4 2337.59 2226.11 2337.59H2098.85C2082.58 2337.59 2069.38 2324.39 2069.38 2308.11C2069.38 2291.84 2082.58 2278.65 2098.85 2278.65H2226.11Z" fill="#6D4C41"/>
<path fill-rule="evenodd" clip-rule="evenodd" d="M2085.71 2334.35C2076.29 2329.63 2069.7 2320.09 2069.4 2308.93C2069.4 2308.89 2069.4 2308.86 2069.4 2308.82C2069.4 2308.79 2069.4 2308.76 2069.4 2308.75C2069.4 2308.72 2069.4 2308.7 2069.4 2308.67C2069.38 2308.61 2069.38 2308.56 2069.38 2308.5C2069.38 2308.49 2069.38 2308.48 2069.38 2308.46C2069.38 2308.42 2069.38 2308.38 2069.38 2308.34C2069.38 2308.31 2069.38 2308.3 2069.38 2308.29C2069.38 2308.23 2069.38 2308.18 2069.38 2308.11C2069.38 2292.48 2081.57 2279.69 2096.96 2278.71C2097.58 2278.67 2098.22 2278.65 2098.85 2278.65H2226.11C2226.18 2278.65 2226.24 2278.65 2226.29 2278.65C2226.3 2278.65 2226.32 2278.65 2226.35 2278.65C2226.39 2278.65 2226.43 2278.66 2226.47 2278.66C2226.48 2278.66 2226.49 2278.66 2226.51 2278.66C2226.56 2278.66 2226.62 2278.66 2226.67 2278.66C2226.7 2278.66 2226.73 2278.66 2226.75 2278.66C2226.78 2278.66 2226.79 2278.66 2226.82 2278.66C2226.86 2278.66 2226.89 2278.66 2226.93 2278.66C2238.11 2278.97 2247.63 2285.56 2252.35 2294.97C2248.38 2292.97 2243.96 2291.75 2239.21 2291.75H2111.95C2095.68 2291.75 2082.48 2304.94 2082.48 2321.21C2082.48 2325.96 2083.71 2330.38 2085.71 2334.35Z" fill="#BEC5CC"/>
<path fill-rule="evenodd" clip-rule="evenodd" d="M2069.4 2308.67C2069.38 2308.61 2069.38 2308.56 2069.38 2308.5C2069.38 2308.56 2069.38 2308.61 2069.4 2308.67ZM2069.38 2308.29C2069.38 2308.23 2069.38 2308.18 2069.38 2308.11C2069.38 2308.18 2069.38 2308.23 2069.38 2308.29ZM2069.38 2308.11C2069.38 2292.48 2081.57 2279.69 2096.96 2278.71C2081.57 2279.69 2069.38 2292.48 2069.38 2308.11ZM2226.67 2278.66C2226.62 2278.66 2226.56 2278.66 2226.51 2278.66C2226.56 2278.66 2226.62 2278.66 2226.67 2278.66ZM2226.29 2278.65C2226.24 2278.65 2226.18 2278.65 2226.11 2278.65C2226.18 2278.65 2226.24 2278.65 2226.29 2278.65Z" fill="#B6A6A0"/>
<path fill-rule="evenodd" clip-rule="evenodd" d="M1978.28 1692.37C1967.65 1692.37 1957.04 1688.25 1949.04 1680.02C1933.31 1663.87 1933.67 1638.04 1949.83 1622.31C2066.14 1509.14 2121.28 1403.54 2113.69 1308.46C2105.77 1209.31 2029.62 1136.15 1967.13 1092.26C1897.27 1043.18 1853.36 969.919 1846.68 891.26C1840.22 815.243 1867.97 742.293 1924.81 685.845C1940.36 670.404 1951.98 661.917 1953.26 661L2000.95 727.232L2001.1 727.122C2001.01 727.179 1993.21 732.948 1982.32 743.758C1942.92 782.89 1923.63 832.819 1928.01 884.349C1932.63 938.879 1964 990.316 2014.05 1025.47C2090.85 1079.43 2184.61 1171.21 2195.04 1301.97C2204.66 1422.42 2141.3 1549.88 2006.74 1680.81C1998.81 1688.53 1988.54 1692.37 1978.28 1692.37Z" fill="#6D4C41"/>
<path fill-rule="evenodd" clip-rule="evenodd" d="M3021.53 2431.65C2963.35 2431.65 2916.02 2384.33 2916.02 2326.15C2916.02 2267.96 2963.35 2220.63 3021.53 2220.63C3079.71 2220.63 3127.05 2267.96 3127.05 2326.15C3127.05 2384.33 3079.71 2431.65 3021.53 2431.65Z" fill="#FF5722"/>
<path fill-rule="evenodd" clip-rule="evenodd" d="M3021.54 2192.79C2948 2192.79 2888.19 2252.61 2888.19 2326.15C2888.19 2399.67 2948 2459.5 3021.54 2459.5C3095.06 2459.5 3154.88 2399.67 3154.88 2326.15C3154.88 2252.61 3095.06 2192.79 3021.54 2192.79ZM3021.54 2248.46C3064.44 2248.46 3099.21 2283.25 3099.21 2326.15C3099.21 2369.04 3064.44 2403.82 3021.54 2403.82C2978.63 2403.82 2943.85 2369.04 2943.85 2326.15C2943.85 2283.25 2978.63 2248.46 3021.54 2248.46Z" fill="#6D4C41"/>
<path fill-rule="evenodd" clip-rule="evenodd" d="M2579.69 2431.65C2521.51 2431.65 2474.17 2384.33 2474.17 2326.15C2474.17 2267.96 2521.51 2220.63 2579.69 2220.63C2637.87 2220.63 2685.21 2267.96 2685.21 2326.15C2685.21 2384.33 2637.87 2431.65 2579.69 2431.65Z" fill="#29B6F6"/>
<path fill-rule="evenodd" clip-rule="evenodd" d="M2579.69 2192.79C2506.15 2192.79 2446.34 2252.61 2446.34 2326.15C2446.34 2399.67 2506.15 2459.5 2579.69 2459.5C2653.21 2459.5 2713.04 2399.67 2713.04 2326.15C2713.04 2252.61 2653.21 2192.79 2579.69 2192.79ZM2579.69 2248.46C2622.59 2248.46 2657.36 2283.25 2657.36 2326.15C2657.36 2369.04 2622.59 2403.82 2579.69 2403.82C2536.79 2403.82 2502.01 2369.04 2502.01 2326.15C2502.01 2283.25 2536.79 2248.46 2579.69 2248.46Z" fill="#6D4C41"/>
<path fill-rule="evenodd" clip-rule="evenodd" d="M2800.61 2652.57C2742.43 2652.57 2695.1 2605.25 2695.1 2547.07C2695.1 2488.88 2742.43 2441.55 2800.61 2441.55C2858.79 2441.55 2906.13 2488.88 2906.13 2547.07C2906.13 2605.25 2858.79 2652.57 2800.61 2652.57Z" fill="#8BC34A"/>
<path fill-rule="evenodd" clip-rule="evenodd" d="M2800.61 2413.71C2727.08 2413.71 2667.26 2473.53 2667.26 2547.07C2667.26 2620.59 2727.08 2680.42 2800.61 2680.42C2874.14 2680.42 2933.96 2620.59 2933.96 2547.07C2933.96 2473.53 2874.14 2413.71 2800.61 2413.71ZM2800.61 2469.39C2843.52 2469.39 2878.28 2504.17 2878.28 2547.07C2878.28 2589.96 2843.52 2624.74 2800.61 2624.74C2757.71 2624.74 2722.93 2589.96 2722.93 2547.07C2722.93 2504.17 2757.71 2469.39 2800.61 2469.39Z" fill="#6D4C41"/>
<path fill-rule="evenodd" clip-rule="evenodd" d="M2800.61 2210.73C2742.43 2210.73 2695.1 2163.4 2695.1 2105.23C2695.1 2047.03 2742.43 1999.71 2800.61 1999.71C2858.79 1999.71 2906.13 2047.03 2906.13 2105.23C2906.13 2163.4 2858.79 2210.73 2800.61 2210.73Z" fill="#FFCA28"/>
<path fill-rule="evenodd" clip-rule="evenodd" d="M2800.61 1971.86C2727.08 1971.86 2667.26 2031.69 2667.26 2105.22C2667.26 2178.75 2727.08 2238.57 2800.61 2238.57C2874.14 2238.57 2933.96 2178.75 2933.96 2105.22C2933.96 2031.69 2874.14 1971.86 2800.61 1971.86ZM2800.61 2027.54C2843.52 2027.54 2878.28 2062.32 2878.28 2105.22C2878.28 2148.11 2843.52 2182.9 2800.61 2182.9C2757.71 2182.9 2722.93 2148.11 2722.93 2105.22C2722.93 2062.32 2757.71 2027.54 2800.61 2027.54Z" fill="#6D4C41"/>
<path fill-rule="evenodd" clip-rule="evenodd" d="M2579.69 2403.82C2579.69 2403.82 2579.69 2403.82 2579.68 2403.82C2579.61 2403.82 2579.54 2403.82 2579.47 2403.82C2579.45 2403.82 2579.42 2403.82 2579.39 2403.82C2579.34 2403.82 2579.28 2403.82 2579.24 2403.82C2579.21 2403.82 2579.19 2403.82 2579.16 2403.82C2579.09 2403.82 2579.01 2403.82 2578.94 2403.82C2578.92 2403.82 2578.89 2403.82 2578.86 2403.82C2578.82 2403.82 2578.78 2403.82 2578.74 2403.82C2578.7 2403.82 2578.66 2403.82 2578.62 2403.82C2578.59 2403.82 2578.55 2403.81 2578.52 2403.81C2578.48 2403.81 2578.44 2403.81 2578.4 2403.81C2578.36 2403.81 2578.3 2403.81 2578.26 2403.81C2578.19 2403.81 2578.14 2403.81 2578.07 2403.81C2578.04 2403.81 2578.03 2403.81 2578 2403.81C2577.95 2403.81 2577.91 2403.81 2577.85 2403.81C2577.84 2403.79 2577.83 2403.79 2577.81 2403.79C2553.31 2403.22 2531.66 2391.28 2517.84 2373.05C2521.85 2378.33 2526.53 2383.08 2531.74 2387.18C2525.76 2379.57 2521.14 2370.82 2518.3 2361.3C2525.31 2363.39 2532.72 2364.54 2540.41 2364.54C2583.31 2364.54 2618.08 2329.75 2618.08 2286.85C2618.08 2279.18 2616.93 2271.77 2614.85 2264.76C2624.36 2267.6 2633.11 2272.21 2640.73 2278.2C2636.52 2272.85 2631.64 2268.08 2626.21 2264C2644.15 2277.42 2656.1 2298.41 2657.27 2322.26C2657.27 2322.27 2657.27 2322.29 2657.27 2322.29C2657.28 2322.34 2657.28 2322.39 2657.28 2322.45C2657.28 2322.46 2657.28 2322.48 2657.28 2322.49C2657.28 2322.59 2657.29 2322.67 2657.29 2322.76C2657.29 2322.79 2657.29 2322.82 2657.29 2322.84C2657.29 2322.88 2657.31 2322.93 2657.31 2322.97C2657.31 2322.99 2657.31 2323.03 2657.31 2323.06C2657.31 2323.1 2657.31 2323.14 2657.31 2323.17C2657.31 2323.24 2657.32 2323.31 2657.32 2323.36C2657.32 2323.4 2657.32 2323.43 2657.32 2323.46C2657.32 2323.5 2657.32 2323.55 2657.32 2323.59C2657.32 2323.63 2657.32 2323.66 2657.34 2323.69C2657.34 2323.74 2657.34 2323.78 2657.34 2323.84C2657.34 2323.86 2657.34 2323.88 2657.34 2323.9C2657.34 2323.99 2657.34 2324.05 2657.34 2324.12C2657.35 2324.15 2657.35 2324.16 2657.35 2324.18C2657.35 2324.24 2657.35 2324.3 2657.35 2324.35C2657.35 2324.38 2657.35 2324.39 2657.35 2324.42C2657.35 2324.49 2657.35 2324.54 2657.35 2324.61C2657.35 2324.63 2657.35 2324.64 2657.35 2324.65C2657.35 2324.72 2657.36 2324.8 2657.36 2324.87C2657.36 2324.88 2657.36 2324.91 2657.36 2324.92C2657.36 2324.98 2657.36 2325.05 2657.36 2325.1C2657.36 2325.13 2657.36 2325.14 2657.36 2325.17C2657.36 2325.24 2657.36 2325.31 2657.36 2325.37C2657.36 2325.39 2657.36 2325.39 2657.36 2325.39C2657.36 2325.47 2657.36 2325.55 2657.36 2325.62C2657.36 2325.65 2657.36 2325.66 2657.36 2325.69C2657.36 2325.74 2657.36 2325.8 2657.36 2325.85C2657.36 2325.88 2657.36 2325.9 2657.36 2325.92C2657.36 2326 2657.36 2326.07 2657.36 2326.15C2657.36 2347.59 2648.68 2367 2634.63 2381.05C2634.63 2381.06 2634.62 2381.06 2634.62 2381.08C2634.6 2381.08 2634.6 2381.08 2634.6 2381.09C2620.54 2395.13 2601.13 2403.82 2579.69 2403.82Z" fill="#37A1D2"/>
<path fill-rule="evenodd" clip-rule="evenodd" d="M2579.69 2403.82C2601.13 2403.82 2620.54 2395.13 2634.6 2381.09C2620.54 2395.13 2601.13 2403.82 2579.69 2403.82ZM2579.68 2403.82C2579.61 2403.82 2579.54 2403.82 2579.47 2403.82C2579.54 2403.82 2579.61 2403.82 2579.68 2403.82ZM2579.39 2403.82C2579.34 2403.82 2579.28 2403.82 2579.24 2403.82C2579.28 2403.82 2579.34 2403.82 2579.39 2403.82ZM2579.16 2403.82C2579.09 2403.82 2579.02 2403.82 2578.94 2403.82C2579.01 2403.82 2579.09 2403.82 2579.16 2403.82ZM2657.36 2326.15C2657.36 2326.07 2657.36 2326 2657.36 2325.92C2657.36 2326 2657.36 2326.07 2657.36 2326.15ZM2657.36 2325.85C2657.36 2325.8 2657.36 2325.74 2657.36 2325.69C2657.36 2325.74 2657.36 2325.8 2657.36 2325.85ZM2657.36 2325.62C2657.36 2325.55 2657.36 2325.47 2657.36 2325.39C2657.36 2325.47 2657.36 2325.55 2657.36 2325.62ZM2657.36 2325.37C2657.36 2325.31 2657.36 2325.24 2657.36 2325.17C2657.36 2325.24 2657.36 2325.31 2657.36 2325.37ZM2657.36 2325.1C2657.36 2325.05 2657.36 2324.98 2657.36 2324.92C2657.36 2324.98 2657.36 2325.05 2657.36 2325.1ZM2657.36 2324.87C2657.36 2324.8 2657.35 2324.72 2657.35 2324.65C2657.35 2324.72 2657.36 2324.8 2657.36 2324.87ZM2657.35 2324.61C2657.35 2324.54 2657.35 2324.49 2657.35 2324.42C2657.35 2324.49 2657.35 2324.54 2657.35 2324.61ZM2657.35 2324.35C2657.35 2324.3 2657.35 2324.24 2657.35 2324.18C2657.35 2324.24 2657.35 2324.3 2657.35 2324.35ZM2657.33 2324.12C2657.33 2324.05 2657.33 2323.99 2657.33 2323.9C2657.33 2323.99 2657.33 2324.05 2657.33 2324.12ZM2657.33 2323.84C2657.33 2323.78 2657.33 2323.74 2657.33 2323.69C2657.33 2323.74 2657.33 2323.78 2657.33 2323.84ZM2657.32 2323.59C2657.32 2323.55 2657.32 2323.5 2657.32 2323.46C2657.32 2323.5 2657.32 2323.55 2657.32 2323.59ZM2657.32 2323.36C2657.32 2323.31 2657.31 2323.24 2657.31 2323.17C2657.31 2323.24 2657.32 2323.31 2657.32 2323.36Z" fill="#6D4C41"/>
<path fill-rule="evenodd" clip-rule="evenodd" d="M2517.84 2373.05C2509.27 2361.81 2503.71 2348.18 2502.34 2333.32C2502.33 2333.32 2502.33 2333.3 2502.33 2333.29C2502.33 2333.22 2502.32 2333.15 2502.32 2333.09C2502.11 2330.8 2502 2328.49 2502 2326.15C2502 2283.25 2536.79 2248.46 2579.69 2248.46C2582.25 2248.46 2584.78 2248.59 2587.27 2248.83C2587.32 2248.83 2587.38 2248.84 2587.42 2248.84C2587.43 2248.84 2587.44 2248.84 2587.46 2248.84C2601.92 2250.29 2615.19 2255.71 2626.21 2264C2621.61 2260.56 2616.61 2257.6 2611.3 2255.24C2612.68 2258.31 2613.87 2261.49 2614.85 2264.76C2607.86 2262.68 2600.45 2261.56 2592.79 2261.56C2549.89 2261.56 2515.1 2296.34 2515.1 2339.23C2515.1 2346.91 2516.22 2354.31 2518.3 2361.3C2515.04 2360.32 2511.85 2359.13 2508.78 2357.76C2511.21 2363.22 2514.26 2368.34 2517.84 2373.05Z" fill="#94DBFB"/>
<path fill-rule="evenodd" clip-rule="evenodd" d="M2502.32 2333.09C2502.11 2330.8 2502 2328.49 2502 2326.15C2502 2283.25 2536.79 2248.46 2579.69 2248.46C2582.25 2248.46 2584.78 2248.59 2587.27 2248.83C2584.78 2248.59 2582.25 2248.46 2579.69 2248.46C2536.79 2248.46 2502 2283.25 2502 2326.15C2502 2328.49 2502.11 2330.8 2502.32 2333.09Z" fill="#B6A6A0"/>
<path fill-rule="evenodd" clip-rule="evenodd" d="M2531.74 2387.18C2526.53 2383.08 2521.85 2378.33 2517.84 2373.05C2514.26 2368.34 2511.21 2363.22 2508.78 2357.76C2511.85 2359.13 2515.04 2360.32 2518.3 2361.3C2521.14 2370.82 2525.76 2379.57 2531.74 2387.18ZM2640.73 2278.2C2633.11 2272.21 2624.36 2267.6 2614.85 2264.76C2613.87 2261.49 2612.68 2258.31 2611.3 2255.24C2616.61 2257.6 2621.61 2260.55 2626.21 2264C2631.64 2268.08 2636.52 2272.85 2640.73 2278.2Z" fill="#9BD0E9"/>
<path fill-rule="evenodd" clip-rule="evenodd" d="M2800.61 2182.9C2800.61 2182.9 2800.61 2182.9 2800.6 2182.9C2800.53 2182.9 2800.46 2182.9 2800.4 2182.9C2800.37 2182.9 2800.34 2182.9 2800.31 2182.9C2800.26 2182.9 2800.21 2182.9 2800.16 2182.9C2800.14 2182.9 2800.11 2182.9 2800.08 2182.9C2800.01 2182.9 2799.93 2182.9 2799.87 2182.9C2799.84 2182.9 2799.81 2182.9 2799.78 2182.9C2799.74 2182.9 2799.7 2182.9 2799.66 2182.9C2799.62 2182.9 2799.58 2182.9 2799.54 2182.9C2799.51 2182.88 2799.47 2182.88 2799.43 2182.88C2799.4 2182.88 2799.36 2182.88 2799.32 2182.88C2799.28 2182.88 2799.23 2182.88 2799.19 2182.88C2799.12 2182.88 2799.06 2182.88 2798.99 2182.88C2798.97 2182.88 2798.95 2182.88 2798.93 2182.88C2798.87 2182.88 2798.83 2182.88 2798.78 2182.87C2798.76 2182.87 2798.75 2182.87 2798.74 2182.87C2774.22 2182.3 2752.55 2170.34 2738.73 2152.1C2742.76 2157.39 2747.44 2162.15 2752.66 2166.26C2746.68 2158.64 2742.07 2149.9 2739.24 2140.37C2746.23 2142.47 2753.64 2143.61 2761.33 2143.61C2804.23 2143.61 2839 2108.83 2839 2065.93C2839 2058.25 2837.86 2050.84 2835.78 2043.84C2845.28 2046.68 2854.03 2051.29 2861.65 2057.27C2857.54 2052.05 2852.78 2047.37 2847.49 2043.35C2865.05 2056.65 2876.78 2077.22 2878.15 2100.59C2878.15 2100.6 2878.15 2100.63 2878.16 2100.64C2878.16 2100.68 2878.16 2100.74 2878.16 2100.78C2878.16 2100.8 2878.16 2100.84 2878.18 2100.87C2878.18 2100.94 2878.18 2100.99 2878.18 2101.06C2878.18 2101.1 2878.19 2101.14 2878.19 2101.18C2878.19 2101.21 2878.19 2101.25 2878.19 2101.29C2878.19 2101.33 2878.19 2101.38 2878.2 2101.42C2878.2 2101.44 2878.2 2101.47 2878.2 2101.5C2878.2 2101.57 2878.2 2101.65 2878.22 2101.72C2878.22 2101.73 2878.22 2101.73 2878.22 2101.74C2878.22 2101.81 2878.22 2101.88 2878.22 2101.95C2878.22 2101.96 2878.22 2101.99 2878.22 2102C2878.23 2102.07 2878.23 2102.12 2878.23 2102.19C2878.23 2102.2 2878.23 2102.22 2878.23 2102.23C2878.24 2102.38 2878.24 2102.54 2878.24 2102.69C2878.24 2102.71 2878.24 2102.72 2878.24 2102.74C2878.26 2102.8 2878.26 2102.88 2878.26 2102.95V2102.97C2878.26 2103.05 2878.26 2103.13 2878.26 2103.21V2103.23C2878.27 2103.29 2878.27 2103.37 2878.27 2103.46C2878.27 2103.46 2878.27 2103.47 2878.27 2103.48C2878.27 2103.63 2878.27 2103.8 2878.29 2103.96C2878.29 2103.97 2878.29 2103.97 2878.29 2103.97C2878.29 2104.05 2878.29 2104.12 2878.29 2104.19C2878.29 2104.2 2878.29 2104.22 2878.29 2104.23C2878.29 2104.39 2878.29 2104.54 2878.29 2104.69C2878.29 2104.72 2878.29 2104.74 2878.29 2104.75C2878.29 2104.8 2878.29 2104.87 2878.29 2104.93C2878.29 2104.95 2878.29 2104.97 2878.29 2104.99C2878.29 2105.06 2878.29 2105.14 2878.29 2105.22C2878.29 2129.42 2867.21 2151.05 2849.84 2165.31C2849.81 2165.32 2849.8 2165.35 2849.77 2165.36C2836.37 2176.33 2819.26 2182.9 2800.61 2182.9Z" fill="#E2B12D"/>
<path fill-rule="evenodd" clip-rule="evenodd" d="M2800.61 2182.9C2819.26 2182.9 2836.37 2176.33 2849.77 2165.36C2836.37 2176.33 2819.26 2182.9 2800.61 2182.9ZM2800.6 2182.9C2800.53 2182.9 2800.46 2182.9 2800.4 2182.9C2800.46 2182.9 2800.53 2182.9 2800.6 2182.9ZM2800.31 2182.9C2800.26 2182.9 2800.21 2182.9 2800.16 2182.9C2800.21 2182.9 2800.26 2182.9 2800.31 2182.9ZM2800.08 2182.9C2800.02 2182.9 2799.95 2182.9 2799.87 2182.9C2799.93 2182.9 2800.02 2182.9 2800.08 2182.9ZM2878.29 2105.23C2878.29 2105.14 2878.29 2105.06 2878.29 2104.99C2878.29 2105.06 2878.29 2105.14 2878.29 2105.21V2105.23ZM2878.29 2104.93C2878.29 2104.87 2878.29 2104.8 2878.29 2104.75C2878.29 2104.8 2878.29 2104.87 2878.29 2104.93ZM2878.29 2104.69C2878.29 2104.55 2878.29 2104.4 2878.29 2104.23C2878.29 2104.4 2878.29 2104.55 2878.29 2104.69ZM2878.29 2104.19C2878.29 2104.12 2878.29 2104.06 2878.29 2103.97C2878.29 2104.04 2878.29 2104.12 2878.29 2104.19ZM2878.29 2103.96C2878.27 2103.8 2878.27 2103.63 2878.27 2103.48C2878.27 2103.63 2878.27 2103.8 2878.29 2103.96ZM2878.27 2103.46C2878.27 2103.38 2878.27 2103.29 2878.26 2103.23C2878.27 2103.29 2878.27 2103.38 2878.27 2103.46ZM2878.26 2103.21C2878.26 2103.13 2878.26 2103.05 2878.26 2102.97C2878.26 2103.05 2878.26 2103.13 2878.26 2103.21ZM2878.26 2102.95C2878.26 2102.89 2878.26 2102.8 2878.24 2102.74C2878.26 2102.8 2878.26 2102.89 2878.26 2102.95ZM2878.24 2102.7C2878.24 2102.55 2878.24 2102.38 2878.23 2102.23C2878.24 2102.38 2878.24 2102.55 2878.24 2102.7ZM2878.23 2102.19C2878.23 2102.12 2878.23 2102.07 2878.22 2102C2878.23 2102.07 2878.23 2102.12 2878.23 2102.19ZM2878.22 2101.95C2878.22 2101.88 2878.22 2101.81 2878.22 2101.74C2878.22 2101.81 2878.22 2101.88 2878.22 2101.95ZM2878.22 2101.72C2878.2 2101.65 2878.2 2101.57 2878.2 2101.5C2878.2 2101.57 2878.2 2101.63 2878.22 2101.72Z" fill="#6D4C41"/>
<path fill-rule="evenodd" clip-rule="evenodd" d="M2738.73 2152.1C2730.14 2140.8 2724.56 2127.07 2723.24 2112.12C2723.24 2112.11 2723.23 2112.08 2723.23 2112.07C2723.23 2112.01 2723.23 2111.95 2723.21 2111.89C2723.21 2111.82 2723.2 2111.77 2723.2 2111.7V2111.69C2723.02 2109.55 2722.93 2107.4 2722.93 2105.23C2722.93 2062.32 2757.71 2027.54 2800.61 2027.54C2803.2 2027.54 2805.77 2027.66 2808.28 2027.92C2808.3 2027.92 2808.3 2027.92 2808.31 2027.92C2808.35 2027.92 2808.41 2027.94 2808.45 2027.94C2808.5 2027.94 2808.57 2027.95 2808.62 2027.95C2808.64 2027.95 2808.64 2027.95 2808.65 2027.95C2823.17 2029.46 2836.48 2034.97 2847.49 2043.35C2842.79 2039.78 2837.68 2036.75 2832.23 2034.32C2833.61 2037.39 2834.8 2040.57 2835.78 2043.84C2828.78 2041.76 2821.37 2040.64 2813.71 2040.64C2770.81 2040.64 2736.03 2075.41 2736.03 2118.31C2736.03 2125.98 2737.14 2133.38 2739.24 2140.38C2735.96 2139.4 2732.78 2138.21 2729.7 2136.84C2732.14 2142.28 2735.17 2147.39 2738.73 2152.1Z" fill="#FFE594"/>
<path fill-rule="evenodd" clip-rule="evenodd" d="M2723.21 2111.89C2723.21 2111.84 2723.2 2111.77 2723.2 2111.7C2723.2 2111.77 2723.21 2111.82 2723.21 2111.89ZM2723.2 2111.69C2723.02 2109.55 2722.93 2107.39 2722.93 2105.21C2722.93 2062.32 2757.71 2027.54 2800.61 2027.54C2803.2 2027.54 2805.77 2027.66 2808.28 2027.92C2805.77 2027.66 2803.2 2027.54 2800.61 2027.54C2757.71 2027.54 2722.93 2062.32 2722.93 2105.23C2722.93 2107.4 2723.02 2109.55 2723.2 2111.69ZM2808.45 2027.94C2808.41 2027.94 2808.35 2027.92 2808.31 2027.92C2808.35 2027.92 2808.39 2027.94 2808.45 2027.94Z" fill="#B6A6A0"/>
<path fill-rule="evenodd" clip-rule="evenodd" d="M2752.66 2166.26C2747.44 2162.15 2742.76 2157.39 2738.73 2152.1C2735.17 2147.39 2732.14 2142.28 2729.7 2136.84C2732.78 2138.21 2735.96 2139.4 2739.24 2140.38C2742.07 2149.9 2746.68 2158.64 2752.66 2166.26ZM2861.65 2057.28C2854.03 2051.29 2845.28 2046.68 2835.78 2043.84C2834.8 2040.57 2833.61 2037.39 2832.23 2034.31C2837.68 2036.75 2842.8 2039.78 2847.49 2043.35C2852.78 2047.37 2857.54 2052.05 2861.65 2057.28Z" fill="#F1D896"/>
<path fill-rule="evenodd" clip-rule="evenodd" d="M3021.54 2403.82C3021.54 2403.82 3021.54 2403.82 3021.52 2403.82C3021.45 2403.82 3021.39 2403.82 3021.32 2403.82C3021.29 2403.82 3021.26 2403.82 3021.24 2403.82C3021.18 2403.82 3021.13 2403.82 3021.09 2403.82C3021.06 2403.82 3021.03 2403.82 3021.01 2403.82C3020.94 2403.82 3020.86 2403.82 3020.79 2403.82C3020.76 2403.82 3020.73 2403.82 3020.71 2403.82C3020.67 2403.82 3020.63 2403.82 3020.58 2403.82C3020.54 2403.82 3020.5 2403.82 3020.46 2403.82C3020.44 2403.82 3020.39 2403.81 3020.37 2403.81C3020.33 2403.81 3020.29 2403.81 3020.24 2403.81C3020.2 2403.81 3020.15 2403.81 3020.11 2403.81C3020.04 2403.81 3019.99 2403.81 3019.92 2403.81C3019.89 2403.81 3019.88 2403.81 3019.85 2403.81C3019.8 2403.81 3019.75 2403.81 3019.7 2403.81C3019.69 2403.8 3019.67 2403.8 3019.66 2403.8C2995.2 2403.22 2973.56 2391.31 2959.74 2373.14C2963.75 2378.39 2968.4 2383.11 2973.59 2387.19C2967.6 2379.57 2962.99 2370.82 2960.16 2361.3C2967.15 2363.4 2974.57 2364.54 2982.25 2364.54C3025.16 2364.54 3059.92 2329.76 3059.92 2286.85C3059.92 2279.18 3058.78 2271.77 3056.7 2264.76C3066.21 2267.61 3074.95 2272.22 3082.57 2278.2C3078.41 2272.92 3073.59 2268.18 3068.22 2264.12C3086.07 2277.56 3097.94 2298.5 3099.11 2322.26C3099.11 2322.27 3099.11 2322.29 3099.11 2322.29C3099.13 2322.34 3099.13 2322.4 3099.13 2322.45C3099.13 2322.47 3099.13 2322.48 3099.13 2322.49C3099.13 2322.59 3099.14 2322.67 3099.14 2322.76C3099.14 2322.79 3099.14 2322.82 3099.14 2322.85C3099.14 2322.89 3099.14 2322.93 3099.15 2322.97C3099.15 2323 3099.15 2323.04 3099.15 2323.06C3099.15 2323.1 3099.15 2323.15 3099.15 2323.17C3099.15 2323.24 3099.17 2323.31 3099.17 2323.36C3099.17 2323.4 3099.17 2323.43 3099.17 2323.46C3099.17 2323.5 3099.17 2323.55 3099.17 2323.59C3099.17 2323.64 3099.17 2323.66 3099.18 2323.69C3099.18 2323.74 3099.18 2323.78 3099.18 2323.84C3099.18 2323.87 3099.18 2323.88 3099.18 2323.91C3099.18 2323.99 3099.18 2324.06 3099.18 2324.12C3099.18 2324.15 3099.18 2324.17 3099.19 2324.18C3099.19 2324.25 3099.19 2324.3 3099.19 2324.36C3099.19 2324.38 3099.19 2324.4 3099.19 2324.42C3099.19 2324.49 3099.19 2324.55 3099.19 2324.61C3099.19 2324.63 3099.19 2324.64 3099.19 2324.66C3099.19 2324.72 3099.19 2324.8 3099.21 2324.87C3099.21 2324.89 3099.21 2324.91 3099.21 2324.93C3099.21 2324.98 3099.21 2325.05 3099.21 2325.1C3099.21 2325.13 3099.21 2325.15 3099.21 2325.17C3099.21 2325.24 3099.21 2325.31 3099.21 2325.38C3099.21 2325.39 3099.21 2325.39 3099.21 2325.39C3099.21 2325.47 3099.21 2325.55 3099.21 2325.62C3099.21 2325.65 3099.21 2325.66 3099.21 2325.69C3099.21 2325.74 3099.21 2325.8 3099.21 2325.85C3099.21 2325.88 3099.21 2325.91 3099.21 2325.92C3099.21 2326 3099.21 2326.07 3099.21 2326.15C3099.21 2337.74 3096.68 2348.73 3092.12 2358.62C3079.82 2385.3 3052.84 2403.82 3021.54 2403.82Z" fill="#E25528"/>
<path fill-rule="evenodd" clip-rule="evenodd" d="M3021.54 2403.82C3052.84 2403.82 3079.82 2385.29 3092.12 2358.62C3079.82 2385.31 3052.85 2403.82 3021.54 2403.82ZM3021.52 2403.82C3021.45 2403.82 3021.39 2403.82 3021.32 2403.82C3021.39 2403.82 3021.45 2403.82 3021.52 2403.82ZM3021.24 2403.82C3021.18 2403.82 3021.13 2403.82 3021.09 2403.82C3021.13 2403.82 3021.18 2403.82 3021.24 2403.82ZM3021.01 2403.82C3020.94 2403.82 3020.87 2403.82 3020.79 2403.82C3020.86 2403.82 3020.94 2403.82 3021.01 2403.82ZM3099.21 2326.15C3099.21 2326.07 3099.21 2326 3099.21 2325.92C3099.21 2326 3099.21 2326.07 3099.21 2326.15ZM3099.21 2325.85C3099.21 2325.8 3099.21 2325.74 3099.21 2325.69C3099.21 2325.74 3099.21 2325.8 3099.21 2325.85ZM3099.21 2325.62C3099.21 2325.55 3099.21 2325.47 3099.21 2325.39C3099.21 2325.47 3099.21 2325.55 3099.21 2325.62ZM3099.21 2325.37C3099.21 2325.31 3099.21 2325.24 3099.21 2325.17C3099.21 2325.24 3099.21 2325.31 3099.21 2325.37ZM3099.21 2325.1C3099.21 2325.05 3099.21 2324.98 3099.21 2324.92C3099.21 2324.98 3099.21 2325.05 3099.21 2325.1ZM3099.21 2324.87C3099.19 2324.8 3099.19 2324.72 3099.19 2324.65C3099.19 2324.72 3099.19 2324.8 3099.21 2324.87ZM3099.19 2324.61C3099.19 2324.54 3099.19 2324.49 3099.19 2324.42C3099.19 2324.49 3099.19 2324.54 3099.19 2324.61ZM3099.19 2324.35C3099.19 2324.3 3099.19 2324.24 3099.19 2324.18C3099.19 2324.24 3099.19 2324.3 3099.19 2324.35ZM3099.18 2324.12C3099.18 2324.05 3099.18 2323.99 3099.18 2323.9C3099.18 2323.99 3099.18 2324.05 3099.18 2324.12ZM3099.18 2323.84C3099.18 2323.78 3099.18 2323.74 3099.18 2323.69C3099.18 2323.74 3099.18 2323.78 3099.18 2323.84ZM3099.17 2323.59C3099.17 2323.55 3099.17 2323.5 3099.17 2323.46C3099.17 2323.5 3099.17 2323.55 3099.17 2323.59ZM3099.17 2323.36C3099.17 2323.31 3099.15 2323.24 3099.15 2323.17C3099.15 2323.24 3099.17 2323.31 3099.17 2323.36Z" fill="#6D4C41"/>
<path fill-rule="evenodd" clip-rule="evenodd" d="M2959.74 2373.13C2951.1 2361.81 2945.5 2348.08 2944.16 2333.09C2944.15 2333.02 2944.15 2332.95 2944.15 2332.87L2944.14 2332.85C2943.96 2330.64 2943.85 2328.41 2943.85 2326.15C2943.85 2283.25 2978.63 2248.46 3021.53 2248.46C3024.11 2248.46 3026.65 2248.59 3029.17 2248.83C3029.19 2248.84 3029.22 2248.84 3029.25 2248.84C3029.28 2248.84 3029.3 2248.84 3029.34 2248.86C3043.86 2250.31 3057.19 2255.78 3068.22 2264.12C3063.58 2260.62 3058.52 2257.63 3053.15 2255.24C3054.54 2258.31 3055.72 2261.49 3056.7 2264.76C3049.71 2262.68 3042.29 2261.56 3034.63 2261.56C2991.73 2261.56 2956.95 2296.34 2956.95 2339.23C2956.95 2346.91 2958.06 2354.31 2960.16 2361.3C2956.88 2360.32 2953.7 2359.13 2950.62 2357.76C2953.07 2363.26 2956.15 2368.4 2959.74 2373.13Z" fill="#FFAB91"/>
<path fill-rule="evenodd" clip-rule="evenodd" d="M2944.16 2333.09C2944.15 2333.02 2944.15 2332.95 2944.15 2332.87C2944.15 2332.95 2944.15 2333.02 2944.16 2333.09ZM2944.14 2332.85C2943.94 2330.64 2943.85 2328.41 2943.85 2326.15C2943.85 2283.25 2978.63 2248.46 3021.53 2248.46C3024.11 2248.46 3026.65 2248.59 3029.17 2248.83C3026.65 2248.59 3024.11 2248.46 3021.53 2248.46C2978.63 2248.46 2943.85 2283.25 2943.85 2326.15C2943.85 2328.41 2943.96 2330.64 2944.14 2332.85Z" fill="#B6A6A0"/>
<path fill-rule="evenodd" clip-rule="evenodd" d="M2973.59 2387.18C2968.4 2383.1 2963.75 2378.38 2959.74 2373.13C2956.15 2368.4 2953.07 2363.26 2950.62 2357.76C2953.7 2359.13 2956.88 2360.32 2960.16 2361.3C2962.99 2370.82 2967.6 2379.57 2973.59 2387.18ZM3082.57 2278.2C3074.95 2272.21 3066.21 2267.6 3056.7 2264.76C3055.72 2261.49 3054.54 2258.31 3053.15 2255.24C3058.52 2257.63 3063.58 2260.62 3068.22 2264.12C3073.59 2268.17 3078.41 2272.92 3082.57 2278.2Z" fill="#F1AA94"/>
<path fill-rule="evenodd" clip-rule="evenodd" d="M2800.61 2624.75C2800.61 2624.75 2800.61 2624.75 2800.6 2624.75C2800.53 2624.75 2800.46 2624.75 2800.4 2624.75C2800.37 2624.75 2800.34 2624.75 2800.31 2624.75C2800.26 2624.75 2800.21 2624.75 2800.16 2624.75C2800.14 2624.75 2800.11 2624.75 2800.08 2624.75C2800.01 2624.75 2799.93 2624.75 2799.87 2624.75C2799.84 2624.75 2799.81 2624.75 2799.78 2624.75C2799.74 2624.75 2799.7 2624.75 2799.66 2624.75C2799.62 2624.75 2799.58 2624.75 2799.54 2624.75C2799.51 2624.75 2799.47 2624.73 2799.43 2624.73C2799.4 2624.73 2799.36 2624.73 2799.32 2624.73C2799.28 2624.73 2799.23 2624.73 2799.19 2624.73C2799.12 2624.73 2799.06 2624.73 2798.99 2624.73C2798.97 2624.73 2798.95 2624.73 2798.93 2624.73C2798.87 2624.73 2798.83 2624.73 2798.78 2624.73C2798.76 2624.73 2798.75 2624.72 2798.74 2624.72C2774.22 2624.15 2752.55 2612.19 2738.73 2593.95C2742.76 2599.24 2747.44 2604 2752.66 2608.11C2746.68 2600.49 2742.07 2591.75 2739.24 2582.22C2746.23 2584.32 2753.64 2585.46 2761.33 2585.46C2804.23 2585.46 2839 2550.68 2839 2507.78C2839 2500.1 2837.86 2492.69 2835.78 2485.68C2845.28 2488.53 2854.03 2493.14 2861.65 2499.12C2857.49 2493.85 2852.67 2489.1 2847.3 2485.04C2865.14 2498.48 2877.02 2519.42 2878.19 2543.18C2878.19 2543.2 2878.19 2543.21 2878.19 2543.21C2878.2 2543.26 2878.2 2543.32 2878.2 2543.37C2878.2 2543.39 2878.2 2543.4 2878.2 2543.41C2878.2 2543.51 2878.22 2543.59 2878.22 2543.69C2878.22 2543.71 2878.22 2543.74 2878.22 2543.77C2878.22 2543.81 2878.22 2543.85 2878.23 2543.89C2878.23 2543.92 2878.23 2543.96 2878.23 2543.99C2878.23 2544.03 2878.23 2544.07 2878.23 2544.09C2878.23 2544.16 2878.24 2544.23 2878.24 2544.28C2878.24 2544.33 2878.24 2544.35 2878.24 2544.38C2878.24 2544.42 2878.24 2544.48 2878.24 2544.52C2878.24 2544.56 2878.24 2544.58 2878.24 2544.61C2878.26 2544.67 2878.26 2544.71 2878.26 2544.76C2878.26 2544.79 2878.26 2544.8 2878.26 2544.83C2878.26 2544.91 2878.26 2544.98 2878.26 2545.05C2878.26 2545.07 2878.26 2545.09 2878.26 2545.1C2878.27 2545.17 2878.27 2545.22 2878.27 2545.28C2878.27 2545.31 2878.27 2545.32 2878.27 2545.35C2878.27 2545.41 2878.27 2545.47 2878.27 2545.54C2878.27 2545.55 2878.27 2545.56 2878.27 2545.58C2878.27 2545.65 2878.27 2545.73 2878.29 2545.79C2878.29 2545.81 2878.29 2545.84 2878.29 2545.85C2878.29 2545.9 2878.29 2545.97 2878.29 2546.03C2878.29 2546.05 2878.29 2546.07 2878.29 2546.09C2878.29 2546.16 2878.29 2546.23 2878.29 2546.3C2878.29 2546.31 2878.29 2546.31 2878.29 2546.33C2878.29 2546.39 2878.29 2546.48 2878.29 2546.54C2878.29 2546.57 2878.29 2546.58 2878.29 2546.61C2878.29 2546.67 2878.29 2546.72 2878.29 2546.77C2878.29 2546.8 2878.29 2546.83 2878.29 2546.84C2878.29 2546.92 2878.29 2546.99 2878.29 2547.07C2878.29 2558.66 2875.75 2569.65 2871.2 2579.54C2858.9 2606.22 2831.91 2624.75 2800.61 2624.75Z" fill="#85AB48"/>
<path fill-rule="evenodd" clip-rule="evenodd" d="M2800.61 2624.74C2831.91 2624.74 2858.9 2606.22 2871.2 2579.54C2858.9 2606.23 2831.93 2624.74 2800.61 2624.74ZM2800.6 2624.74C2800.53 2624.74 2800.46 2624.74 2800.4 2624.74C2800.46 2624.74 2800.53 2624.74 2800.6 2624.74ZM2800.31 2624.74C2800.26 2624.74 2800.21 2624.74 2800.16 2624.74C2800.21 2624.74 2800.26 2624.74 2800.31 2624.74ZM2800.08 2624.74C2800.02 2624.74 2799.95 2624.74 2799.87 2624.74C2799.93 2624.74 2800.02 2624.74 2800.08 2624.74ZM2878.29 2547.07C2878.29 2546.99 2878.29 2546.92 2878.29 2546.84C2878.29 2546.92 2878.29 2546.99 2878.29 2547.07ZM2878.29 2546.77C2878.29 2546.72 2878.29 2546.66 2878.29 2546.61C2878.29 2546.66 2878.29 2546.72 2878.29 2546.77ZM2878.29 2546.54C2878.29 2546.47 2878.29 2546.39 2878.29 2546.32C2878.29 2546.39 2878.29 2546.47 2878.29 2546.54ZM2878.29 2546.3C2878.29 2546.23 2878.29 2546.16 2878.29 2546.09C2878.29 2546.16 2878.29 2546.23 2878.29 2546.3ZM2878.29 2546.02C2878.29 2545.97 2878.29 2545.9 2878.29 2545.85C2878.29 2545.9 2878.29 2545.97 2878.29 2546.02ZM2878.29 2545.79C2878.27 2545.72 2878.27 2545.64 2878.27 2545.57C2878.27 2545.64 2878.27 2545.72 2878.29 2545.79ZM2878.27 2545.53C2878.27 2545.47 2878.27 2545.41 2878.27 2545.34C2878.27 2545.41 2878.27 2545.48 2878.27 2545.53ZM2878.27 2545.28C2878.27 2545.22 2878.27 2545.17 2878.26 2545.1C2878.27 2545.17 2878.27 2545.22 2878.27 2545.28ZM2878.26 2545.04C2878.26 2544.98 2878.26 2544.91 2878.26 2544.83C2878.26 2544.91 2878.26 2544.98 2878.26 2545.04ZM2878.26 2544.76C2878.26 2544.7 2878.26 2544.66 2878.24 2544.61C2878.26 2544.66 2878.26 2544.7 2878.26 2544.76ZM2878.24 2544.28C2878.24 2544.23 2878.23 2544.16 2878.23 2544.09C2878.23 2544.16 2878.24 2544.23 2878.24 2544.28Z" fill="#6D4C41"/>
<path fill-rule="evenodd" clip-rule="evenodd" d="M2738.73 2593.95C2730.14 2582.65 2724.56 2568.94 2723.24 2554.01C2723.23 2553.94 2723.23 2553.87 2723.23 2553.8C2723.23 2553.79 2723.21 2553.78 2723.21 2553.78C2723.04 2551.56 2722.93 2549.33 2722.93 2547.07C2722.93 2504.17 2757.71 2469.38 2800.61 2469.38C2803.18 2469.38 2805.73 2469.51 2808.24 2469.75C2808.27 2469.77 2808.3 2469.77 2808.32 2469.77C2808.35 2469.77 2808.38 2469.77 2808.42 2469.78C2822.93 2471.23 2836.27 2476.7 2847.3 2485.04C2842.66 2481.55 2837.6 2478.55 2832.23 2476.16C2833.61 2479.23 2834.8 2482.42 2835.78 2485.68C2828.78 2483.6 2821.37 2482.48 2813.71 2482.48C2770.81 2482.48 2736.03 2517.25 2736.03 2560.16C2736.03 2567.83 2737.14 2575.23 2739.24 2582.22C2735.96 2581.24 2732.78 2580.06 2729.7 2578.68C2732.14 2584.14 2735.17 2589.25 2738.73 2593.95Z" fill="#C5E1A5"/>
<path fill-rule="evenodd" clip-rule="evenodd" d="M2723.24 2554.01C2723.23 2553.94 2723.23 2553.87 2723.23 2553.8C2723.23 2553.87 2723.23 2553.94 2723.24 2554.01ZM2723.21 2553.78C2723.02 2551.56 2722.93 2549.33 2722.93 2547.07C2722.93 2504.17 2757.71 2469.38 2800.61 2469.38C2803.18 2469.38 2805.73 2469.51 2808.24 2469.75C2805.73 2469.51 2803.18 2469.38 2800.61 2469.38C2757.71 2469.38 2722.93 2504.17 2722.93 2547.07C2722.93 2549.33 2723.04 2551.56 2723.21 2553.78Z" fill="#B6A6A0"/>
<path fill-rule="evenodd" clip-rule="evenodd" d="M2752.66 2608.11C2747.44 2604 2742.76 2599.24 2738.73 2593.95C2735.17 2589.25 2732.14 2584.14 2729.7 2578.68C2732.78 2580.06 2735.96 2581.24 2739.24 2582.22C2742.07 2591.74 2746.68 2600.49 2752.66 2608.11ZM2861.65 2499.12C2854.03 2493.14 2845.28 2488.53 2835.78 2485.68C2834.8 2482.42 2833.61 2479.23 2832.23 2476.16C2837.6 2478.55 2842.66 2481.55 2847.3 2485.04C2852.67 2489.1 2857.49 2493.84 2861.65 2499.12Z" fill="#C2D5A4"/>
<path fill-rule="evenodd" clip-rule="evenodd" d="M1144.24 2644.88C1090.72 2644.88 1047.15 2601.32 1047.15 2547.78V2423.25H922.614C869.074 2423.25 825.518 2379.68 825.518 2326.15C825.518 2272.61 869.074 2229.05 922.614 2229.05H1047.15V2104.5C1047.15 2050.98 1090.72 2007.42 1144.24 2007.42C1197.78 2007.42 1241.34 2050.98 1241.34 2104.5V2229.05H1365.89C1419.43 2229.05 1462.98 2272.61 1462.98 2326.15C1462.98 2379.68 1419.43 2423.25 1365.89 2423.25H1241.34V2547.78C1241.34 2601.32 1197.78 2644.88 1144.24 2644.88Z" fill="white"/>
<path fill-rule="evenodd" clip-rule="evenodd" d="M1144.24 1979.58C1075.36 1979.58 1019.32 2035.62 1019.32 2104.51V2201.21H922.614C853.73 2201.21 797.687 2257.25 797.687 2326.15C797.687 2395.03 853.73 2451.08 922.614 2451.08H1019.32V2547.78C1019.32 2616.66 1075.36 2672.71 1144.24 2672.71C1213.14 2672.71 1269.19 2616.66 1269.19 2547.78V2451.08H1365.89C1434.77 2451.08 1490.82 2395.03 1490.82 2326.15C1490.82 2257.25 1434.77 2201.21 1365.89 2201.21H1269.19V2104.51C1269.19 2035.62 1213.14 1979.58 1144.24 1979.58ZM1144.24 2035.25C1182.51 2035.25 1213.51 2066.25 1213.51 2104.51V2256.88H1365.89C1404.14 2256.88 1435.14 2287.88 1435.14 2326.15C1435.14 2364.39 1404.14 2395.4 1365.89 2395.4H1213.51V2547.78C1213.51 2586.03 1182.51 2617.03 1144.24 2617.03C1105.99 2617.03 1074.99 2586.03 1074.99 2547.78V2395.4H922.614C884.363 2395.4 853.363 2364.39 853.363 2326.15C853.363 2287.88 884.363 2256.88 922.614 2256.88H1074.99V2104.51C1074.99 2066.25 1105.99 2035.25 1144.24 2035.25Z" fill="#6D4C41"/>
<path fill-rule="evenodd" clip-rule="evenodd" d="M1213.51 2256.88H1174.22V2104.51C1174.22 2073.14 1153.22 2046.94 1124.6 2038.42C1130.63 2036.64 1136.86 2035.36 1143.43 2035.25C1143.7 2035.25 1143.97 2035.25 1144.24 2035.25C1182.51 2035.25 1213.51 2066.25 1213.51 2104.51V2256.88Z" fill="#E2DBD9"/>
<path fill-rule="evenodd" clip-rule="evenodd" d="M1213.51 2256.88V2104.51C1213.51 2066.25 1182.51 2035.25 1144.24 2035.25C1143.97 2035.25 1143.7 2035.25 1143.43 2035.25C1143.7 2035.25 1143.97 2035.25 1144.24 2035.25C1182.51 2035.25 1213.51 2066.25 1213.51 2104.51V2256.88Z" fill="#6D4C41"/>
<path fill-rule="evenodd" clip-rule="evenodd" d="M1365.89 2395.4H1327.04C1365.09 2395.17 1395.85 2364.25 1395.85 2326.15C1395.85 2288.03 1365.09 2257.13 1327.04 2256.88H1365.89C1404.14 2256.88 1435.14 2287.88 1435.14 2326.15C1435.14 2345.26 1427.39 2362.58 1414.86 2375.12C1402.33 2387.65 1385.01 2395.4 1365.89 2395.4Z" fill="#E2DBD9"/>
<path fill-rule="evenodd" clip-rule="evenodd" d="M1365.89 2395.4H1326.6C1326.74 2395.4 1326.89 2395.4 1327.04 2395.4H1365.89C1385.01 2395.4 1402.33 2387.65 1414.86 2375.12C1402.33 2387.65 1385.01 2395.4 1365.89 2395.4ZM1435.14 2326.15C1435.14 2287.88 1404.14 2256.88 1365.89 2256.88H1327.04C1326.89 2256.88 1326.74 2256.88 1326.6 2256.88H1365.89C1404.14 2256.88 1435.14 2287.88 1435.14 2326.15Z" fill="#6D4C41"/>
<path fill-rule="evenodd" clip-rule="evenodd" d="M1144.24 2617.03C1143.97 2617.03 1143.7 2617.03 1143.44 2617.03C1136.86 2616.94 1130.63 2615.66 1124.6 2613.86C1153.22 2605.35 1174.22 2579.15 1174.22 2547.78V2395.4H1213.51V2547.78C1213.51 2564.58 1207.52 2579.99 1197.57 2591.99C1184.86 2607.29 1165.7 2617.03 1144.24 2617.03Z" fill="#E2DBD9"/>
<path fill-rule="evenodd" clip-rule="evenodd" d="M1144.24 2617.03C1143.97 2617.03 1143.7 2617.03 1143.44 2617.03C1143.7 2617.03 1143.97 2617.03 1144.24 2617.03C1165.7 2617.03 1184.86 2607.29 1197.57 2591.99C1184.86 2607.29 1165.7 2617.03 1144.24 2617.03ZM1213.51 2547.78V2395.4V2547.78Z" fill="#6D4C41"/>
<path fill-rule="evenodd" clip-rule="evenodd" d="M1976.28 1859.6C1903.96 1859.6 1845.33 1800.97 1845.33 1728.65V1650.08H2107.24V1728.65C2107.24 1800.97 2048.61 1859.6 1976.28 1859.6Z" fill="#6D4C41"/>
<path fill-rule="evenodd" clip-rule="evenodd" d="M2754.91 3128.39C2703.16 3128.39 2652.08 3119.88 2602.83 3102.85C2590.41 3098.55 2578.19 3093.79 2566.2 3088.61C2566.29 3088.6 2566.37 3088.6 2566.47 3088.58C2566.74 3088.69 2567.03 3088.81 2567.28 3088.94C2567.12 3088.81 2566.94 3088.68 2566.78 3088.56C2926.91 3060.55 3056.72 2792.36 3090.31 2504.9C3143.02 2487.1 3181.07 2437.17 3181.07 2378.52C3181.07 2346.62 3169.8 2317.29 3151.05 2294.3C3143.1 2261.98 3123.34 2234.25 3096.61 2215.98C3082.87 1980.45 3031.83 1785.32 3027.48 1769.03C3137.17 1835.96 3220.57 1947.76 3276.31 2103.08C3334.98 2266.53 3339.76 2420.01 3339.95 2427.65C3339.8 2843.26 3126.7 3016.94 2947.93 3089.45C2884 3115.38 2818.95 3128.39 2754.91 3128.39Z" fill="#9999A0"/>
<path fill-rule="evenodd" clip-rule="evenodd" d="M2754.77 3169.14C2738.6 3169.14 2722.41 3168.38 2706.28 3166.83L2529.56 3090.57C2542.04 3090.18 2554.24 3089.52 2566.2 3088.61C2578.19 3093.8 2590.41 3098.56 2602.83 3102.86C2652.08 3119.89 2703.16 3128.39 2754.91 3128.39C2818.95 3128.39 2884 3115.38 2947.93 3089.46C3126.7 3016.94 3339.8 2843.26 3339.95 2427.65C3339.76 2420.01 3334.98 2266.53 3276.32 2103.08C3220.57 1947.76 3137.17 1835.96 3027.48 1769.04C3027.29 1768.31 3027.18 1767.93 3027.18 1767.93L3073.61 1750.73C3372.17 1958.16 3380.76 2427.21 3380.76 2427.21C3380.76 2876.46 3138.81 3056.08 2963.26 3127.27C2895.64 3154.71 2825.18 3169.14 2754.77 3169.14Z" fill="#6D4C41"/>
<path fill-rule="evenodd" clip-rule="evenodd" d="M3090.31 2504.9C3092.98 2482.13 3095.03 2459.24 3096.56 2436.34C3131.75 2412.31 3154.88 2371.88 3154.88 2326.15C3154.88 2315.17 3153.55 2304.52 3151.05 2294.3C3169.81 2317.29 3181.07 2346.62 3181.07 2378.52C3181.07 2437.17 3143.02 2487.1 3090.31 2504.9Z" fill="#90898D"/>
<path fill-rule="evenodd" clip-rule="evenodd" d="M2567.28 3088.94C2567.03 3088.82 2566.74 3088.69 2566.47 3088.58C2566.58 3088.57 2566.67 3088.57 2566.78 3088.56C2566.94 3088.68 2567.12 3088.82 2567.28 3088.94Z" fill="#B6B1B3"/>
<path fill-rule="evenodd" clip-rule="evenodd" d="M3096.56 2436.35C3101.51 2361.73 3100.76 2287.04 3096.61 2215.98C3123.34 2234.25 3143.11 2261.98 3151.05 2294.31C3153.55 2304.52 3154.89 2315.17 3154.89 2326.15C3154.89 2371.88 3131.75 2412.31 3096.56 2436.35Z" fill="#6D4C41"/>
<path fill-rule="evenodd" clip-rule="evenodd" d="M1197.66 3128.39C1133.63 3128.39 1068.56 3115.38 1004.64 3089.45C938.244 3062.52 867.101 3021.63 803.903 2959.57V2959.53C850.043 3004.83 900.414 3038.85 950.078 3064.4C905.924 3033.81 863.075 2995.35 825.055 2946.98C883.534 2979.33 953.574 2992.23 1028.21 2992.23C1324.02 2992.21 1691.46 2789.38 1691.46 2789.38L1692.98 2789.77C1680.41 2793.42 1671.46 2802.48 1666.98 2813.07L1666.94 2813.06C1666.71 2813.59 1643.72 2867.18 1592.77 2929.65C1525.5 3012.05 1443.74 3070.33 1349.74 3102.85C1300.49 3119.88 1249.42 3128.39 1197.66 3128.39Z" fill="#9999A0"/>
<path fill-rule="evenodd" clip-rule="evenodd" d="M1196.06 3169.14C1125.96 3169.14 1055.8 3154.69 988.465 3127.27C936.04 3105.92 877.671 3074.68 821.614 3029.45L803.903 2959.58C867.101 3021.63 938.244 3062.52 1004.64 3089.46C1068.56 3115.38 1133.63 3128.39 1197.66 3128.39C1249.42 3128.39 1300.49 3119.89 1349.74 3102.85C1443.74 3070.33 1525.5 3012.06 1592.77 2929.65C1643.72 2867.19 1666.71 2813.59 1666.94 2813.06L1666.98 2813.07C1671.46 2802.48 1680.41 2793.42 1692.98 2789.77L1818.63 2822.23C1818.63 2822.23 1819.99 2823.33 1822.41 2825.29C1758.12 2827.15 1699.05 2828.9 1700.61 2828.9C1700.61 2828.9 1605.94 3056.18 1360.62 3141.42C1306.74 3160.14 1251.42 3169.14 1196.06 3169.14Z" fill="#6D4C41"/>
<path fill-rule="evenodd" clip-rule="evenodd" d="M950.078 3064.4C900.415 3038.85 850.044 3004.83 803.903 2959.54L796.068 2928.62C805.372 2935.34 815.03 2941.44 825.055 2946.98C863.075 2995.35 905.924 3033.81 950.078 3064.4Z" fill="#B6B1B3"/>
</svg>
